# xmcd
#
# Track frame offsets:
#  150
#  11345
#  23851
#  34018
#  46137
#  56929
#  76250
#  105289
#  120429
#  149348
#  161862
#  174341
#  185066
#  195217
#  207159
#
# Disc length: 2940 seconds
#
# Revision: 0
# Processed by: cddbd v1.5.1PL0 Copyright (c) Steve Scherf et al.
# Submitted via: Collectorz.com_Music_Collector 6.9
#
DISCID=bb0b7a0f
DTITLE=Lucy Desoto - Whisky Dance
DYEAR=2004
DGENRE=Blues -  Blues Electric -  Blues Female Vocalist
TTITLE0=Bullfrog
TTITLE1=Bright Lights Big City
TTITLE2=Mean Old World
TTITLE3=Ain't Got You
TTITLE4=Way She Done It
TTITLE5=Flip Flop and Fly
TTITLE6=Spoonful
TTITLE7=Blues With A Feeling
TTITLE8=Two Trains Runnin'
TTITLE9=Talk To Me Baby
TTITLE10=Rolling and Tumbling
TTITLE11=Raise Your Window
TTITLE12=Watch Yourself
TTITLE13=Keys To The Highway
TTITLE14=Killing Floor
EXTD=
EXTT0=
EXTT1=
EXTT2=
EXTT3=
EXTT4=
EXTT5=
EXTT6=
EXTT7=
EXTT8=
EXTT9=
EXTT10=
EXTT11=
EXTT12=
EXTT13=
EXTT14=
PLAYORDER=
